<svg height="510" width="720" xmlns="http://www.w3.org/2000/svg">
<rect height="510" fill="#555" width="720"></rect>
<text fill="#7f7" font-family="Courier New" font-size="12" xml:space="preserve">
<tspan x="10" y="26">2 megabytes installed</tspan>
<tspan x="10" y="42"></tspan>
<tspan x="10" y="58">node_modules</tspan>
<tspan x="10" y="74">└─┬ requisition@1.7.0 </tspan>
<tspan x="10" y="90">  ├── any-promise@1.3.0 </tspan>
<tspan x="10" y="106">  ├── cookie@0.2.4 </tspan>
<tspan x="10" y="122">  ├── destroy@1.0.4 </tspan>
<tspan x="10" y="138">  ├─┬ fs-cp@1.4.0 </tspan>
<tspan x="10" y="154">  │ └─┬ mkdirp-then@1.2.0 </tspan>
<tspan x="10" y="170">  │   └─┬ mkdirp@0.5.1 </tspan>
<tspan x="10" y="186">  │     └── minimist@0.0.8 </tspan>
<tspan x="10" y="202">  ├─┬ http-errors@1.6.1 </tspan>
<tspan x="10" y="218">  │ ├── depd@1.1.0 </tspan>
<tspan x="10" y="234">  │ ├── inherits@2.0.3 </tspan>
<tspan x="10" y="250">  │ └── setprototypeof@1.0.3 </tspan>
<tspan x="10" y="266">  ├── media-typer@0.3.0 </tspan>
<tspan x="10" y="282">  ├── memorizer@1.0.1 </tspan>
<tspan x="10" y="298">  ├── methods@1.1.2 </tspan>
<tspan x="10" y="314">  ├─┬ mime-types@2.1.15 </tspan>
<tspan x="10" y="330">  │ └── mime-db@1.27.0 </tspan>
<tspan x="10" y="346">  ├─┬ mz@2.6.0 </tspan>
<tspan x="10" y="362">  │ ├── object-assign@4.1.1 </tspan>
<tspan x="10" y="378">  │ └─┬ thenify-all@1.6.0 </tspan>
<tspan x="10" y="394">  │   └── thenify@3.2.1 </tspan>
<tspan x="10" y="410">  ├─┬ parse-link-header@0.4.1 </tspan>
<tspan x="10" y="426">  │ └── xtend@4.0.1 </tspan>
<tspan x="10" y="442">  ├── statuses@1.3.1 </tspan>
<tspan x="10" y="458">  ├── stream-to-array@2.3.0 </tspan>
<tspan x="10" y="474">  ├── temp-path@1.0.0 </tspan>
<tspan x="10" y="490">  └── type-is@1.6.15</tspan>
</text>
</svg>
